exbold.ufo
<glyph name="ampersand" format="1">
  <advance width="1472"/>
  <unicode hex="0026"/>
  <outline>
    <contour>
      <point x="1027" y="0" type="line"/>
      <point x="938" y="92" type="line"/>
      <point x="884" y="57"/>
      <point x="840" y="34"/>
      <point x="805" y="21" type="curve" smooth="yes"/>
      <point x="736" y="-4"/>
      <point x="653" y="-18"/>
      <point x="542" y="-18" type="curve"/>
      <point x="257" y="-22"/>
      <point x="60" y="144"/>
      <point x="65" y="365" type="curve"/>
      <point x="65" y="522"/>
      <point x="147" y="643"/>
      <point x="310" y="726" type="curve"/>
      <point x="235" y="810"/>
      <point x="192" y="901"/>
      <point x="192" y="1020" type="curve" smooth="yes"/>
      <point x="192" y="1116"/>
      <point x="229" y="1192"/>
      <point x="303" y="1248" type="curve" smooth="yes"/>
      <point x="377" y="1305"/>
      <point x="479" y="1333"/>
      <point x="608" y="1333" type="curve" smooth="yes"/>
      <point x="735" y="1333"/>
      <point x="833" y="1305"/>
      <point x="904" y="1249" type="curve" smooth="yes"/>
      <point x="975" y="1193"/>
      <point x="1010" y="1117"/>
      <point x="1010" y="1020" type="curve" smooth="yes"/>
      <point x="1010" y="887"/>
      <point x="936" y="775"/>
      <point x="772" y="675" type="curve"/>
      <point x="951" y="505" type="line"/>
      <point x="996" y="574"/>
      <point x="1028" y="652"/>
      <point x="1045" y="739" type="curve"/>
      <point x="1410" y="739" type="line"/>
      <point x="1392" y="656"/>
      <point x="1364" y="573"/>
      <point x="1325" y="490" type="curve" smooth="yes"/>
      <point x="1286" y="407"/>
      <point x="1243" y="335"/>
      <point x="1194" y="276" type="curve"/>
      <point x="1482" y="0" type="line"/>
    </contour>
    <contour>
      <point x="427" y="391" type="curve" smooth="yes"/>
      <point x="427" y="315"/>
      <point x="486" y="262"/>
      <point x="575" y="262" type="curve" smooth="yes"/>
      <point x="643" y="262"/>
      <point x="697" y="283"/>
      <point x="724" y="306" type="curve"/>
      <point x="501" y="533" type="line"/>
      <point x="452" y="496"/>
      <point x="427" y="449"/>
    </contour>
    <contour>
      <point x="693" y="1020" type="curve" smooth="yes"/>
      <point x="693" y="1079"/>
      <point x="655" y="1102"/>
      <point x="603" y="1102" type="curve" smooth="yes"/>
      <point x="552" y="1102"/>
      <point x="508" y="1073"/>
      <point x="508" y="1008" type="curve" smooth="yes"/>
      <point x="508" y="963"/>
      <point x="535" y="916"/>
      <point x="588" y="868" type="curve"/>
      <point x="656" y="907"/>
      <point x="693" y="963"/>
    </contour>
  </outline>
</glyph>
<glyph name="comma.deva" format="1">
  <advance width="570"/>
  <unicode hex="002C"/>
  <outline>
    <contour>
      <point x="448" y="269" type="line"/>
      <point x="461" y="248" type="line"/>
      <point x="402" y="19"/>
      <point x="349" y="-149"/>
      <point x="302" y="-257" type="curve"/>
      <point x="51" y="-257" type="line"/>
      <point x="68" y="-174"/>
      <point x="86" y="-81"/>
      <point x="103" y="22" type="curve" smooth="yes"/>
      <point x="121" y="125"/>
      <point x="133" y="207"/>
      <point x="140" y="269" type="curve"/>
    </contour>
  </outline>
</glyph>
<glyph name="one.deva" format="1">
  <advance width="1080"/>
  <unicode hex="0031"/>
  <outline>
    <contour>
      <point x="848" y="0" type="line"/>
      <point x="487" y="0" type="line"/>
      <point x="487" y="697" type="line" smooth="yes"/>
      <point x="487" y="781"/>
      <point x="489" y="858"/>
      <point x="492" y="929" type="curve"/>
      <point x="470" y="902"/>
      <point x="442" y="873"/>
      <point x="409" y="844" type="curve"/>
      <point x="260" y="721" type="line"/>
      <point x="76" y="948" type="line"/>
      <point x="527" y="1316" type="line"/>
      <point x="848" y="1316" type="line"/>
    </contour>
  </outline>
</glyph>
<glyph name="two.deva" format="1">
  <advance width="1080"/>
  <unicode hex="0032"/>
  <outline>
    <contour>
      <point x="1010" y="0" type="line"/>
      <point x="55" y="0" type="line"/>
      <point x="55" y="234" type="line"/>
      <point x="376" y="559" type="line"/>
      <point x="468" y="655"/>
      <point x="528" y="720"/>
      <point x="556" y="755" type="curve" smooth="yes"/>
      <point x="612" y="826"/>
      <point x="632" y="870"/>
      <point x="632" y="925" type="curve" smooth="yes"/>
      <point x="632" y="993"/>
      <point x="585" y="1036"/>
      <point x="505" y="1036" type="curve" smooth="yes"/>
      <point x="422" y="1036"/>
      <point x="343" y="988"/>
      <point x="236" y="895" type="curve"/>
      <point x="40" y="1124" type="line"/>
      <point x="108" y="1185"/>
      <point x="165" y="1228"/>
      <point x="211" y="1254" type="curve" smooth="yes"/>
      <point x="304" y="1306"/>
      <point x="410" y="1335"/>
      <point x="545" y="1335" type="curve"/>
      <point x="800" y="1340"/>
      <point x="989" y="1182"/>
      <point x="985" y="975" type="curve"/>
      <point x="985" y="871"/>
      <point x="960" y="787"/>
      <point x="905" y="702" type="curve" smooth="yes"/>
      <point x="878" y="660"/>
      <point x="843" y="616"/>
      <point x="798" y="569" type="curve" smooth="yes"/>
      <point x="753" y="522"/>
      <point x="658" y="433"/>
      <point x="512" y="302" type="curve"/>
      <point x="512" y="293" type="line"/>
      <point x="1010" y="293" type="line"/>
    </contour>
  </outline>
</glyph>
<glyph name="at" format="1">
  <advance width="1653"/>
  <unicode hex="0040"/>
  <outline>
    <contour>
      <point x="1579" y="680" type="curve" smooth="yes"/>
      <point x="1579" y="595"/>
      <point x="1564" y="516"/>
      <point x="1535" y="443" type="curve" smooth="yes"/>
      <point x="1478" y="298"/>
      <point x="1370" y="210"/>
      <point x="1238" y="210" type="curve" smooth="yes"/>
      <point x="1143" y="210"/>
      <point x="1063" y="249"/>
      <point x="1020" y="317" type="curve"/>
      <point x="1006" y="317" type="line"/>
      <point x="942" y="246"/>
      <point x="864" y="210"/>
      <point x="772" y="210" type="curve" smooth="yes"/>
      <point x="552" y="210"/>
      <point x="431" y="344"/>
      <point x="431" y="575" type="curve"/>
      <point x="427" y="829"/>
      <point x="614" y="1007"/>
      <point x="892" y="1003" type="curve"/>
      <point x="941" y="1003"/>
      <point x="994" y="998"/>
      <point x="1052" y="988" type="curve" smooth="yes"/>
      <point x="1111" y="978"/>
      <point x="1164" y="965"/>
      <point x="1213" y="948" type="curve"/>
      <point x="1194" y="568" type="line"/>
      <point x="1192" y="483" type="line"/>
      <point x="1192" y="432"/>
      <point x="1207" y="406"/>
      <point x="1237" y="406" type="curve" smooth="yes"/>
      <point x="1268" y="406"/>
      <point x="1293" y="432"/>
      <point x="1312" y="484" type="curve" smooth="yes"/>
      <point x="1332" y="536"/>
      <point x="1342" y="602"/>
      <point x="1342" y="682" type="curve" smooth="yes"/>
      <point x="1342" y="825"/>
      <point x="1301" y="936"/>
      <point x="1220" y="1014" type="curve" smooth="yes"/>
      <point x="1139" y="1092"/>
      <point x="1025" y="1131"/>
      <point x="876" y="1131" type="curve"/>
      <point x="534" y="1134"/>
      <point x="315" y="902"/>
      <point x="319" y="545" type="curve"/>
      <point x="319" y="392"/>
      <point x="362" y="274"/>
      <point x="447" y="191" type="curve" smooth="yes"/>
      <point x="532" y="108"/>
      <point x="653" y="67"/>
      <point x="809" y="67" type="curve" smooth="yes"/>
      <point x="948" y="67"/>
      <point x="1117" y="98"/>
      <point x="1272" y="153" type="curve"/>
      <point x="1272" y="-53" type="line"/>
      <point x="1137" y="-110"/>
      <point x="987" y="-139"/>
      <point x="822" y="-139" type="curve" smooth="yes"/>
      <point x="589" y="-139"/>
      <point x="406" y="-78"/>
      <point x="273" y="43" type="curve" smooth="yes"/>
      <point x="140" y="165"/>
      <point x="74" y="334"/>
      <point x="74" y="549" type="curve" smooth="yes"/>
      <point x="74" y="701"/>
      <point x="108" y="837"/>
      <point x="177" y="957" type="curve" smooth="yes"/>
      <point x="246" y="1078"/>
      <point x="340" y="1170"/>
      <point x="461" y="1235" type="curve" smooth="yes"/>
      <point x="582" y="1300"/>
      <point x="719" y="1333"/>
      <point x="872" y="1333" type="curve" smooth="yes"/>
      <point x="1013" y="1333"/>
      <point x="1137" y="1306"/>
      <point x="1244" y="1253" type="curve" smooth="yes"/>
      <point x="1460" y="1146"/>
      <point x="1579" y="943"/>
    </contour>
    <contour>
      <point x="684" y="577" type="curve" smooth="yes"/>
      <point x="684" y="457"/>
      <point x="732" y="406"/>
      <point x="804" y="406" type="curve" smooth="yes"/>
      <point x="850" y="406"/>
      <point x="884" y="424"/>
      <point x="905" y="461" type="curve" smooth="yes"/>
      <point x="927" y="498"/>
      <point x="941" y="565"/>
      <point x="948" y="660" type="curve" smooth="yes"/>
      <point x="957" y="800" type="line"/>
      <point x="933" y="803"/>
      <point x="912" y="805"/>
      <point x="895" y="805" type="curve" smooth="yes"/>
      <point x="766" y="805"/>
      <point x="684" y="721"/>
    </contour>
  </outline>
</glyph>
<glyph name="K" format="1">
  <advance width="1266"/>
  <unicode hex="004B"/>
  <outline>
    <contour>
      <point x="1266" y="0" type="line"/>
      <point x="865" y="0" type="line"/>
      <point x="605" y="503" type="line"/>
      <point x="499" y="440" type="line"/>
      <point x="499" y="0" type="line"/>
      <point x="142" y="0" type="line"/>
      <point x="142" y="1316" type="line"/>
      <point x="499" y="1316" type="line"/>
      <point x="499" y="744" type="line"/>
      <point x="517" y="779"/>
      <point x="553" y="836"/>
      <point x="608" y="913" type="curve"/>
      <point x="885" y="1316" type="line"/>
      <point x="1273" y="1316" type="line"/>
      <point x="859" y="726" type="line"/>
    </contour>
  </outline>
</glyph>
<glyph name="S" format="1">
  <advance width="1064"/>
  <unicode hex="0053"/>
  <outline>
    <contour>
      <point x="1003" y="400" type="curve"/>
      <point x="1006" y="155"/>
      <point x="801" y="-21"/>
      <point x="487" y="-18" type="curve"/>
      <point x="399" y="-18"/>
      <point x="325" y="-12"/>
      <point x="266" y="0" type="curve" smooth="yes"/>
      <point x="207" y="13"/>
      <point x="145" y="34"/>
      <point x="81" y="65" type="curve"/>
      <point x="81" y="382" type="line"/>
      <point x="149" y="347"/>
      <point x="219" y="319"/>
      <point x="292" y="300" type="curve" smooth="yes"/>
      <point x="365" y="281"/>
      <point x="433" y="271"/>
      <point x="494" y="271" type="curve" smooth="yes"/>
      <point x="599" y="271"/>
      <point x="647" y="312"/>
      <point x="647" y="369" type="curve" smooth="yes"/>
      <point x="647" y="387"/>
      <point x="642" y="403"/>
      <point x="632" y="416" type="curve" smooth="yes"/>
      <point x="622" y="429"/>
      <point x="606" y="443"/>
      <point x="584" y="457" type="curve" smooth="yes"/>
      <point x="563" y="471"/>
      <point x="504" y="499"/>
      <point x="409" y="542" type="curve" smooth="yes"/>
      <point x="324" y="581"/>
      <point x="259" y="618"/>
      <point x="216" y="655" type="curve" smooth="yes"/>
      <point x="131" y="728"/>
      <point x="90" y="820"/>
      <point x="90" y="949" type="curve" smooth="yes"/>
      <point x="90" y="1070"/>
      <point x="134" y="1165"/>
      <point x="222" y="1233" type="curve" smooth="yes"/>
      <point x="311" y="1301"/>
      <point x="432" y="1335"/>
      <point x="586" y="1335" type="curve" smooth="yes"/>
      <point x="722" y="1335"/>
      <point x="861" y="1303"/>
      <point x="1003" y="1240" type="curve"/>
      <point x="894" y="966" type="line"/>
      <point x="771" y="1022"/>
      <point x="664" y="1050"/>
      <point x="575" y="1050" type="curve" smooth="yes"/>
      <point x="483" y="1050"/>
      <point x="443" y="1014"/>
      <point x="443" y="966" type="curve" smooth="yes"/>
      <point x="443" y="940"/>
      <point x="456" y="917"/>
      <point x="483" y="896" type="curve" smooth="yes"/>
      <point x="510" y="876"/>
      <point x="582" y="839"/>
      <point x="700" y="785" type="curve" smooth="yes"/>
      <point x="813" y="734"/>
      <point x="892" y="679"/>
      <point x="936" y="620" type="curve"/>
      <point x="981" y="562"/>
      <point x="1003" y="489"/>
    </contour>
  </outline>
</glyph>
<glyph name="bracketleft.deva" format="1">
  <advance width="598"/>
  <unicode hex="005B"/>
  <outline>
    <contour>
      <point x="554" y="-310" type="line"/>
      <point x="105" y="-310" type="line"/>
      <point x="105" y="1353" type="line"/>
      <point x="554" y="1353" type="line"/>
      <point x="554" y="1124" type="line"/>
      <point x="391" y="1124" type="line"/>
      <point x="391" y="-81" type="line"/>
      <point x="554" y="-81" type="line"/>
    </contour>
  </outline>
</glyph>
<glyph name="bracketright.deva" format="1">
  <advance width="598"/>
  <unicode hex="005D"/>
  <outline>
    <contour>
      <point x="42" y="-81" type="line"/>
      <point x="206" y="-81" type="line"/>
      <point x="206" y="1124" type="line"/>
      <point x="42" y="1124" type="line"/>
      <point x="42" y="1353" type="line"/>
      <point x="492" y="1353" type="line"/>
      <point x="492" y="-310" type="line"/>
      <point x="42" y="-310" type="line"/>
    </contour>
  </outline>
</glyph>
<glyph name="z" format="1">
  <advance width="934"/>
  <unicode hex="007A"/>
  <outline>
    <contour>
      <point x="888" y="0" type="line"/>
      <point x="44" y="0" type="line"/>
      <point x="44" y="201" type="line"/>
      <point x="466" y="751" type="line"/>
      <point x="68" y="751" type="line"/>
      <point x="68" y="1020" type="line"/>
      <point x="868" y="1020" type="line"/>
      <point x="868" y="802" type="line"/>
      <point x="464" y="269" type="line"/>
      <point x="888" y="269" type="line"/>
    </contour>
  </outline>
</glyph>
<glyph name="visargadeva" format="1">
  <advance width="723"/>
  <unicode hex="0903"/>
  <outline>
    <contour>
      <point x="0" y="0" type="line"/>
      <point x="723" y="0" type="line"/>
      <point x="723" y="20" type="line"/>
      <point x="0" y="20" type="line"/>
    </contour>
  </outline>
</glyph>
<glyph name="aadeva" format="1">
  <advance width="2290"/>
  <unicode hex="0906"/>
  <outline>
    <contour>
      <point x="0" y="0" type="line"/>
      <point x="2290" y="0" type="line"/>
      <point x="2290" y="20" type="line"/>
      <point x="0" y="20" type="line"/>
    </contour>
  </outline>
</glyph>
<glyph name="udeva" format="1">
  <advance width="1087"/>
  <unicode hex="0909"/>
  <outline>
    <contour>
      <point x="311" y="541" type="line"/>
      <point x="252" y="818" type="line"/>
      <point x="277" y="820" type="line"/>
      <point x="540" y="838"/>
      <point x="596" y="895"/>
      <point x="596" y="972" type="curve" smooth="yes"/>
      <point x="596" y="1033"/>
      <point x="554" y="1073"/>
      <point x="449" y="1073" type="curve"/>
      <point x="509" y="1261" type="line"/>
      <point x="756" y="1261"/>
      <point x="915" y="1103"/>
      <point x="915" y="920" type="curve" smooth="yes"/>
      <point x="915" y="720"/>
      <point x="741" y="563"/>
      <point x="345" y="543" type="curve"/>
    </contour>
    <contour>
      <point x="688" y="735" type="line"/>
      <point x="875" y="672"/>
      <point x="997" y="535"/>
      <point x="997" y="365" type="curve" smooth="yes"/>
      <point x="997" y="138"/>
      <point x="836" y="6"/>
      <point x="592" y="6" type="curve" smooth="yes"/>
      <point x="409" y="6"/>
      <point x="216" y="65"/>
      <point x="32" y="183" type="curve"/>
      <point x="99" y="442" type="line"/>
      <point x="263" y="332"/>
      <point x="397" y="289"/>
      <point x="485" y="289" type="curve" smooth="yes"/>
      <point x="593" y="289"/>
      <point x="661" y="346"/>
      <point x="661" y="425" type="curve" smooth="yes"/>
      <point x="661" y="492"/>
      <point x="596" y="570"/>
      <point x="483" y="575" type="curve"/>
    </contour>
    <contour>
      <point x="-86" y="1065" type="line"/>
      <point x="-86" y="1293" type="line"/>
      <point x="1157" y="1293" type="line"/>
      <point x="1157" y="1065" type="line"/>
    </contour>
    <contour>
      <point x="691" y="1282" type="move" name="mark0"/>
    </contour>
    <contour>
      <point x="-141" y="8" type="move" name="x36"/>
    </contour>
  </outline>
</glyph>
<glyph name="uudeva" format="1">
  <advance width="1480"/>
  <unicode hex="090A"/>
  <outline>
    <contour>
      <point x="859" y="313" type="curve"/>
      <point x="699" y="660" type="line"/>
      <point x="811" y="713"/>
      <point x="906" y="744"/>
      <point x="1071" y="744" type="curve" smooth="yes"/>
      <point x="1337" y="744"/>
      <point x="1517" y="568"/>
      <point x="1517" y="345" type="curve" smooth="yes"/>
      <point x="1517" y="206"/>
      <point x="1466" y="86"/>
      <point x="1377" y="-17" type="curve"/>
      <point x="1073" y="102" type="line"/>
      <point x="1152" y="206"/>
      <point x="1197" y="294"/>
      <point x="1197" y="379" type="curve" smooth="yes"/>
      <point x="1197" y="440"/>
      <point x="1154" y="467"/>
      <point x="1102" y="467" type="curve" smooth="yes"/>
      <point x="1022" y="467"/>
      <point x="939" y="417"/>
    </contour>
    <contour>
      <point x="1079" y="1065" type="line"/>
      <point x="1079" y="1293" type="line"/>
      <point x="1529" y="1293" type="line"/>
      <point x="1529" y="1065" type="line"/>
    </contour>
    <component base="udeva"/>
    <contour>
      <point x="852" y="1282" type="move" name="mark0"/>
    </contour>
    <contour>
      <point x="20" y="8" type="move" name="x53"/>
    </contour>
  </outline>
</glyph>
<glyph name="edeva" format="1">
  <advance width="1274"/>
  <unicode hex="090F"/>
  <outline>
    <contour>
      <point x="1123" y="1106" type="line"/>
      <point x="1123" y="735" type="line"/>
      <point x="1123" y="598"/>
      <point x="1082" y="499"/>
      <point x="991" y="403" type="curve"/>
      <point x="722" y="547" type="line"/>
      <point x="759" y="631"/>
      <point x="774" y="694"/>
      <point x="774" y="809" type="curve" smooth="yes"/>
      <point x="774" y="1106" type="line"/>
    </contour>
    <contour>
      <point x="-34" y="1065" type="line"/>
      <point x="-34" y="1293" type="line"/>
      <point x="1334" y="1293" type="line"/>
      <point x="1334" y="1065" type="line"/>
    </contour>
    <contour>
      <point x="96" y="1106" type="line"/>
      <point x="444" y="1106" type="line"/>
      <point x="444" y="689" type="line"/>
      <point x="444" y="588"/>
      <point x="479" y="527"/>
      <point x="570" y="469" type="curve" smooth="yes"/>
      <point x="955" y="224" type="line"/>
      <point x="1084" y="142"/>
      <point x="1117" y="72"/>
      <point x="1117" y="-1" type="curve" smooth="yes"/>
      <point x="1117" y="-83"/>
      <point x="1107" y="-129"/>
      <point x="1069" y="-211" type="curve"/>
      <point x="702" y="-133" type="line"/>
      <point x="719" y="-100"/>
      <point x="735" y="-73"/>
      <point x="735" y="-36" type="curve" smooth="yes"/>
      <point x="735" y="-5"/>
      <point x="712" y="30"/>
      <point x="670" y="58" type="curve" smooth="yes"/>
      <point x="282" y="327" type="line"/>
      <point x="155" y="415"/>
      <point x="96" y="533"/>
      <point x="96" y="684" type="curve" smooth="yes"/>
    </contour>
    <contour>
      <point x="-65" y="8" type="move" name="x44"/>
    </contour>
    <contour>
      <point x="832" y="1282" type="move" name="mark0"/>
    </contour>
  </outline>
</glyph>
<glyph name="ghadeva" format="1">
  <advance width="1394"/>
  <unicode hex="0918"/>
  <outline>
    <contour>
      <point x="347" y="701" type="line"/>
      <point x="142" y="760"/>
      <point x="33" y="886"/>
      <point x="33" y="1024" type="curve" smooth="yes"/>
      <point x="33" y="1095"/>
      <point x="52" y="1161"/>
      <point x="107" y="1211" type="curve"/>
      <point x="442" y="1127" type="line"/>
      <point x="408" y="1086"/>
      <point x="388" y="1049"/>
      <point x="388" y="999" type="curve" smooth="yes"/>
      <point x="388" y="935"/>
      <point x="440" y="886"/>
      <point x="594" y="886" type="curve"/>
    </contour>
    <contour>
      <point x="-58" y="1065" type="line"/>
      <point x="-58" y="1293" type="line"/>
      <point x="1448" y="1293" type="line"/>
      <point x="1448" y="1065" type="line"/>
    </contour>
    <contour>
      <point x="956" y="662" type="curve"/>
      <point x="959" y="191" type="line"/>
      <point x="873" y="154"/>
      <point x="782" y="134"/>
      <point x="665" y="134" type="curve" smooth="yes"/>
      <point x="384" y="134"/>
      <point x="213" y="338"/>
      <point x="213" y="540" type="curve" smooth="yes"/>
      <point x="213" y="715"/>
      <point x="339" y="910"/>
      <point x="665" y="910" type="curve" smooth="yes"/>
      <point x="671" y="910" type="line"/>
      <point x="758" y="637" type="line"/>
      <point x="747" y="636" type="line"/>
      <point x="586" y="623"/>
      <point x="528" y="562"/>
      <point x="528" y="502" type="curve" smooth="yes"/>
      <point x="528" y="450"/>
      <point x="570" y="412"/>
      <point x="641" y="414" type="curve" smooth="yes"/>
      <point x="775" y="417"/>
      <point x="901" y="533"/>
    </contour>
    <contour>
      <point x="885" y="1104" type="line"/>
      <point x="1234" y="1104" type="line"/>
      <point x="1234" y="0" type="line"/>
      <point x="885" y="0" type="line"/>
    </contour>
  </outline>
</glyph>
<glyph name="chadeva" format="1">
  <advance width="1559"/>
  <unicode hex="091B"/>
  <outline>
    <contour>
      <point x="659" y="806" type="curve"/>
      <point x="746" y="536" type="line"/>
      <point x="745" y="536"/>
      <point x="743" y="536"/>
      <point x="742" y="536" type="curve" smooth="yes"/>
      <point x="572" y="521"/>
      <point x="520" y="455"/>
      <point x="520" y="389" type="curve" smooth="yes"/>
      <point x="520" y="315"/>
      <point x="577" y="255"/>
      <point x="711" y="255" type="curve" smooth="yes"/>
      <point x="965" y="255"/>
      <point x="1221" y="490"/>
      <point x="1221" y="664" type="curve" smooth="yes"/>
      <point x="1221" y="729"/>
      <point x="1184" y="767"/>
      <point x="1136" y="767" type="curve" smooth="yes"/>
      <point x="1088" y="767"/>
      <point x="1056" y="729"/>
      <point x="1056" y="668" type="curve" smooth="yes"/>
      <point x="1056" y="591"/>
      <point x="1101" y="520"/>
      <point x="1284" y="379" type="curve"/>
      <point x="1116" y="228" type="line"/>
      <point x="849" y="414"/>
      <point x="768" y="548"/>
      <point x="768" y="731" type="curve" smooth="yes"/>
      <point x="768" y="867"/>
      <point x="853" y="1004"/>
      <point x="1098" y="1004" type="curve" smooth="yes"/>
      <point x="1348" y="1004"/>
      <point x="1506" y="846"/>
      <point x="1506" y="620" type="curve" smooth="yes"/>
      <point x="1506" y="349"/>
      <point x="1206" y="-2"/>
      <point x="717" y="-2" type="curve" smooth="yes"/>
      <point x="360" y="-2"/>
      <point x="171" y="212"/>
      <point x="171" y="437" type="curve" smooth="yes"/>
      <point x="171" y="633"/>
      <point x="327" y="799"/>
      <point x="654" y="806" type="curve" smooth="yes"/>
      <point x="656" y="806"/>
      <point x="657" y="806"/>
    </contour>
    <contour>
      <point x="587" y="765" type="curve"/>
      <point x="365" y="590" type="line"/>
      <point x="132" y="663"/>
      <point x="46" y="791"/>
      <point x="46" y="956" type="curve" smooth="yes"/>
      <point x="46" y="1094"/>
      <point x="190" y="1259"/>
      <point x="500" y="1264" type="curve"/>
      <point x="599" y="1085" type="line"/>
      <point x="455" y="1074"/>
      <point x="390" y="992"/>
      <point x="390" y="920" type="curve" smooth="yes"/>
      <point x="390" y="844"/>
      <point x="441" y="789"/>
    </contour>
    <contour>
      <point x="1610" y="1065" type="line"/>
      <point x="-79" y="1065" type="line"/>
      <point x="-79" y="1293" type="line"/>
      <point x="1610" y="1293" type="line"/>
    </contour>
    <contour>
      <point x="939" y="1105" type="line"/>
      <point x="1288" y="1105" type="line"/>
      <point x="1288" y="876" type="line"/>
      <point x="939" y="876" type="line"/>
    </contour>
    <contour>
      <point x="840" y="8" type="move" name="mark0"/>
    </contour>
    <contour>
      <point x="-62" y="8" type="move" name="x65"/>
    </contour>
    <contour>
      <point x="1615" y="8" type="move" name="x66"/>
    </contour>
  </outline>
</glyph>
<glyph name="jadeva" format="1">
  <advance width="1553"/>
  <unicode hex="091C"/>
  <outline>
    <contour>
      <point x="-63" y="1065" type="line"/>
      <point x="-63" y="1293" type="line"/>
      <point x="1605" y="1293" type="line"/>
      <point x="1605" y="1065" type="line"/>
    </contour>
    <contour>
      <point x="680" y="629" type="line"/>
      <point x="724" y="702" type="line"/>
      <point x="832" y="623"/>
      <point x="898" y="510"/>
      <point x="898" y="378" type="curve" smooth="yes"/>
      <point x="898" y="185"/>
      <point x="759" y="54"/>
      <point x="545" y="54" type="curve" smooth="yes"/>
      <point x="341" y="54"/>
      <point x="155" y="166"/>
      <point x="-48" y="416" type="curve"/>
      <point x="113" y="650" type="line"/>
      <point x="309" y="418"/>
      <point x="400" y="359"/>
      <point x="477" y="359" type="curve" smooth="yes"/>
      <point x="542" y="359"/>
      <point x="582" y="399"/>
      <point x="582" y="458" type="curve" smooth="yes"/>
      <point x="582" y="535"/>
      <point x="521" y="625"/>
      <point x="346" y="664" type="curve"/>
      <point x="346" y="903" type="line"/>
      <point x="1095" y="903" type="line"/>
      <point x="1095" y="629" type="line"/>
    </contour>
    <contour>
      <point x="1044" y="1104" type="line"/>
      <point x="1393" y="1104" type="line"/>
      <point x="1393" y="0" type="line"/>
      <point x="1044" y="0" type="line"/>
    </contour>
  </outline>
</glyph>
<glyph name="nyadeva" format="1">
  <advance width="1601"/>
  <unicode hex="091E"/>
  <outline>
    <contour>
      <point x="838" y="435" type="curve"/>
      <point x="838" y="698" type="line"/>
      <point x="872" y="687"/>
      <point x="915" y="683"/>
      <point x="960" y="683" type="curve" smooth="yes"/>
      <point x="1030" y="683"/>
      <point x="1088" y="697"/>
      <point x="1172" y="738" type="curve"/>
      <point x="1172" y="422" type="line"/>
      <point x="1144" y="414"/>
      <point x="1087" y="407"/>
      <point x="1032" y="407" type="curve" smooth="yes"/>
      <point x="961" y="407"/>
      <point x="890" y="423"/>
    </contour>
    <contour>
      <point x="937" y="521" type="curve" smooth="yes"/>
      <point x="937" y="265"/>
      <point x="751" y="129"/>
      <point x="539" y="129" type="curve" smooth="yes"/>
      <point x="338" y="129"/>
      <point x="154" y="213"/>
      <point x="-50" y="391" type="curve"/>
      <point x="57" y="637" type="line"/>
      <point x="227" y="487"/>
      <point x="339" y="415"/>
      <point x="452" y="415" type="curve" smooth="yes"/>
      <point x="564" y="415"/>
      <point x="628" y="471"/>
      <point x="627" y="558" type="curve" smooth="yes"/>
      <point x="626" y="620"/>
      <point x="552" y="664"/>
      <point x="472" y="664" type="curve" smooth="yes"/>
      <point x="401" y="664"/>
      <point x="347" y="645"/>
      <point x="288" y="603" type="curve"/>
      <point x="174" y="852" type="line"/>
      <point x="256" y="900"/>
      <point x="345" y="935"/>
      <point x="499" y="936" type="curve" smooth="yes"/>
      <point x="707" y="937"/>
      <point x="937" y="778"/>
    </contour>
    <contour>
      <point x="-53" y="1065" type="line"/>
      <point x="-53" y="1293" type="line"/>
      <point x="1655" y="1293" type="line"/>
      <point x="1655" y="1065" type="line"/>
    </contour>
    <contour>
      <point x="1092" y="1104" type="line"/>
      <point x="1441" y="1104" type="line"/>
      <point x="1441" y="0" type="line"/>
      <point x="1092" y="0" type="line"/>
    </contour>
  </outline>
</glyph>
<glyph name="tthadeva" format="1">
  <advance width="1270"/>
  <unicode hex="0920"/>
  <outline>
    <contour>
      <point x="895" y="492" type="curve" smooth="yes"/>
      <point x="895" y="548"/>
      <point x="866" y="601"/>
      <point x="813" y="648" type="curve"/>
      <point x="658" y="648" type="line"/>
      <point x="444" y="648"/>
      <point x="373" y="557"/>
      <point x="373" y="461" type="curve" smooth="yes"/>
      <point x="373" y="349"/>
      <point x="463" y="271"/>
      <point x="614" y="271" type="curve" smooth="yes"/>
      <point x="809" y="271"/>
      <point x="895" y="375"/>
    </contour>
    <contour>
      <point x="1279" y="1065" type="line"/>
      <point x="-42" y="1065" type="line"/>
      <point x="-42" y="1293" type="line"/>
      <point x="1279" y="1293" type="line"/>
    </contour>
    <contour>
      <point x="578" y="1086" type="line"/>
      <point x="908" y="1086" type="line"/>
      <point x="908" y="824" type="line"/>
      <point x="873" y="879" type="line"/>
      <point x="1095" y="801"/>
      <point x="1224" y="627"/>
      <point x="1224" y="435" type="curve" smooth="yes"/>
      <point x="1224" y="218"/>
      <point x="1040" y="23"/>
      <point x="685" y="22" type="curve" smooth="yes"/>
      <point x="259" y="21"/>
      <point x="32" y="261"/>
      <point x="32" y="509" type="curve" smooth="yes"/>
      <point x="32" y="740"/>
      <point x="210" y="893"/>
      <point x="505" y="893" type="curve" smooth="yes"/>
      <point x="621" y="893" type="line"/>
      <point x="578" y="852" type="line"/>
    </contour>
    <contour>
      <point x="541" y="8" type="move" name="mark0"/>
    </contour>
    <contour>
      <point x="-77" y="8" type="move" name="x34"/>
    </contour>
    <contour>
      <point x="1287" y="8" type="move" name="x35"/>
    </contour>
  </outline>
</glyph>
<glyph name="ddadeva" format="1">
  <advance width="1185"/>
  <unicode hex="0921"/>
  <outline>
    <contour>
      <point x="671" y="1086" type="line"/>
      <point x="1000" y="1086" type="line"/>
      <point x="1000" y="723" type="line"/>
      <point x="524" y="723" type="line"/>
      <point x="446" y="723"/>
      <point x="417" y="690"/>
      <point x="417" y="652" type="curve" smooth="yes"/>
      <point x="417" y="615"/>
      <point x="445" y="592"/>
      <point x="516" y="558" type="curve"/>
      <point x="413" y="574" type="line"/>
      <point x="523" y="620"/>
      <point x="592" y="635"/>
      <point x="719" y="635" type="curve" smooth="yes"/>
      <point x="991" y="635"/>
      <point x="1128" y="492"/>
      <point x="1128" y="320" type="curve" smooth="yes"/>
      <point x="1128" y="153"/>
      <point x="975" y="-14"/>
      <point x="618" y="-14" type="curve" smooth="yes"/>
      <point x="403" y="-14"/>
      <point x="249" y="34"/>
      <point x="47" y="139" type="curve"/>
      <point x="104" y="390" type="line"/>
      <point x="301" y="279"/>
      <point x="472" y="226"/>
      <point x="596" y="226" type="curve" smooth="yes"/>
      <point x="732" y="226"/>
      <point x="789" y="277"/>
      <point x="789" y="322" type="curve" smooth="yes"/>
      <point x="789" y="360"/>
      <point x="762" y="382"/>
      <point x="687" y="382" type="curve" smooth="yes"/>
      <point x="600" y="382"/>
      <point x="548" y="368"/>
      <point x="469" y="337" type="curve"/>
      <point x="445" y="336" type="line"/>
      <point x="198" y="439"/>
      <point x="99" y="570"/>
      <point x="99" y="711" type="curve" smooth="yes"/>
      <point x="99" y="832"/>
      <point x="191" y="946"/>
      <point x="433" y="946" type="curve" smooth="yes"/>
      <point x="738" y="946" type="line"/>
      <point x="671" y="880" type="line"/>
    </contour>
    <contour>
      <point x="1208" y="1065" type="line"/>
      <point x="-31" y="1065" type="line"/>
      <point x="-31" y="1293" type="line"/>
      <point x="1208" y="1293" type="line"/>
    </contour>
    <contour>
      <point x="1216" y="8" type="move" name="x45"/>
    </contour>
    <contour>
      <point x="-303" y="8" type="move" name="x44"/>
    </contour>
    <contour>
      <point x="502" y="8" type="move" name="mark0"/>
    </contour>
  </outline>
</glyph>
<glyph name="tadeva" format="1">
  <advance width="1241"/>
  <unicode hex="0924"/>
  <outline>
    <contour>
      <point x="800" y="889" type="line"/>
      <point x="800" y="598" type="line"/>
      <point x="574" y="598" type="line"/>
      <point x="428" y="598"/>
      <point x="368" y="509"/>
      <point x="368" y="409" type="curve" smooth="yes"/>
      <point x="368" y="320"/>
      <point x="403" y="226"/>
      <point x="483" y="44" type="curve"/>
      <point x="200" y="-14" type="line"/>
      <point x="101" y="171"/>
      <point x="45" y="355"/>
      <point x="45" y="516" type="curve" smooth="yes"/>
      <point x="45" y="740"/>
      <point x="188" y="889"/>
      <point x="508" y="889" type="curve" smooth="yes"/>
    </contour>
    <contour>
      <point x="-9" y="1065" type="line"/>
      <point x="-9" y="1293" type="line"/>
      <point x="1295" y="1293" type="line"/>
      <point x="1295" y="1065" type="line"/>
    </contour>
    <contour>
      <point x="732" y="1104" type="line"/>
      <point x="1081" y="1104" type="line"/>
      <point x="1081" y="0" type="line"/>
      <point x="732" y="0" type="line"/>
    </contour>
  </outline>
</glyph>
<glyph name="thadeva" format="1">
  <advance width="1418"/>
  <unicode hex="0925"/>
  <outline>
    <contour>
      <point x="745" y="893" type="curve" smooth="yes"/>
      <point x="745" y="719"/>
      <point x="609" y="530"/>
      <point x="397" y="467" type="curve"/>
      <point x="397" y="556" type="line"/>
      <point x="463" y="481"/>
      <point x="539" y="446"/>
      <point x="620" y="446" type="curve" smooth="yes"/>
      <point x="764" y="446"/>
      <point x="886" y="512"/>
      <point x="965" y="682" type="curve"/>
      <point x="965" y="204" type="line"/>
      <point x="899" y="179"/>
      <point x="834" y="168"/>
      <point x="727" y="168" type="curve" smooth="yes"/>
      <point x="467" y="168"/>
      <point x="192" y="311"/>
      <point x="64" y="613" type="curve"/>
      <point x="64" y="618" type="line"/>
      <point x="277" y="687"/>
      <point x="447" y="828"/>
      <point x="447" y="966" type="curve" smooth="yes"/>
      <point x="447" y="1052"/>
      <point x="394" y="1105"/>
      <point x="332" y="1105" type="curve" smooth="yes"/>
      <point x="292" y="1105"/>
      <point x="269" y="1065"/>
      <point x="271" y="1030" type="curve" smooth="yes"/>
      <point x="275" y="966"/>
      <point x="319" y="913"/>
      <point x="434" y="862" type="curve"/>
      <point x="335" y="708" type="line"/>
      <point x="57" y="794"/>
      <point x="-44" y="959"/>
      <point x="-44" y="1115" type="curve" smooth="yes"/>
      <point x="-44" y="1239"/>
      <point x="54" y="1341"/>
      <point x="266" y="1341" type="curve" smooth="yes"/>
      <point x="597" y="1341"/>
      <point x="745" y="1104"/>
    </contour>
    <contour>
      <point x="910" y="1104" type="line"/>
      <point x="1258" y="1104" type="line"/>
      <point x="1258" y="0" type="line"/>
      <point x="910" y="0" type="line"/>
    </contour>
    <contour>
      <point x="1471" y="1065" type="line"/>
      <point x="797" y="1065" type="line"/>
      <point x="797" y="1293" type="line"/>
      <point x="1471" y="1293" type="line"/>
    </contour>
  </outline>
</glyph>
<glyph name="dhadeva" format="1">
  <advance width="1321"/>
  <unicode hex="0927"/>
  <outline>
    <contour>
      <point x="685" y="637" type="line"/>
      <point x="674" y="636" type="line"/>
      <point x="513" y="623"/>
      <point x="455" y="562"/>
      <point x="455" y="502" type="curve" smooth="yes"/>
      <point x="455" y="450"/>
      <point x="498" y="412"/>
      <point x="568" y="414" type="curve" smooth="yes"/>
      <point x="703" y="417"/>
      <point x="828" y="533"/>
      <point x="883" y="662" type="curve"/>
      <point x="886" y="191" type="line"/>
      <point x="800" y="154"/>
      <point x="710" y="134"/>
      <point x="593" y="134" type="curve" smooth="yes"/>
      <point x="311" y="134"/>
      <point x="140" y="338"/>
      <point x="140" y="540" type="curve" smooth="yes"/>
      <point x="140" y="715"/>
      <point x="266" y="910"/>
      <point x="592" y="910" type="curve" smooth="yes"/>
      <point x="598" y="910" type="line"/>
    </contour>
    <contour>
      <point x="289" y="704" type="line"/>
      <point x="76" y="753"/>
      <point x="-51" y="886"/>
      <point x="-51" y="1081" type="curve" smooth="yes"/>
      <point x="-51" y="1239"/>
      <point x="66" y="1356"/>
      <point x="282" y="1356" type="curve" smooth="yes"/>
      <point x="404" y="1356"/>
      <point x="478" y="1342"/>
      <point x="573" y="1313" type="curve"/>
      <point x="545" y="1075" type="line"/>
      <point x="502" y="1086"/>
      <point x="458" y="1094"/>
      <point x="418" y="1094" type="curve" smooth="yes"/>
      <point x="337" y="1094"/>
      <point x="302" y="1051"/>
      <point x="302" y="1008" type="curve" smooth="yes"/>
      <point x="302" y="934"/>
      <point x="356" y="886"/>
      <point x="528" y="887" type="curve"/>
    </contour>
    <contour>
      <point x="812" y="1103" type="line"/>
      <point x="1161" y="1103" type="line"/>
      <point x="1161" y="-1" type="line"/>
      <point x="812" y="-1" type="line"/>
    </contour>
    <contour>
      <point x="1374" y="1064" type="line"/>
      <point x="719" y="1064" type="line"/>
      <point x="719" y="1292" type="line"/>
      <point x="1374" y="1292" type="line"/>
    </contour>
  </outline>
</glyph>
<glyph name="padeva" format="1">
  <advance width="1251"/>
  <unicode hex="092A"/>
  <outline>
    <contour>
      <point x="1305" y="1065" type="line"/>
      <point x="-76" y="1065" type="line"/>
      <point x="-76" y="1293" type="line"/>
      <point x="1305" y="1293" type="line"/>
    </contour>
    <contour>
      <point x="434" y="1171" type="line"/>
      <point x="434" y="677" type="line"/>
      <point x="434" y="588"/>
      <point x="473" y="540"/>
      <point x="547" y="540" type="curve" smooth="yes"/>
      <point x="633" y="540"/>
      <point x="694" y="573"/>
      <point x="767" y="640" type="curve"/>
      <point x="767" y="294" type="line"/>
      <point x="719" y="280"/>
      <point x="665" y="273"/>
      <point x="605" y="273" type="curve" smooth="yes"/>
      <point x="295" y="273"/>
      <point x="85" y="464"/>
      <point x="85" y="756" type="curve" smooth="yes"/>
      <point x="85" y="1171" type="line"/>
    </contour>
    <contour>
      <point x="742" y="1104" type="line"/>
      <point x="1091" y="1104" type="line"/>
      <point x="1091" y="0" type="line"/>
      <point x="742" y="0" type="line"/>
    </contour>
  </outline>
</glyph>
<glyph name="badeva" format="1">
  <advance width="1217"/>
  <unicode hex="092C"/>
  <outline>
    <contour>
      <point x="743" y="436" type="line"/>
      <point x="618" y="344" type="line"/>
      <point x="312" y="694" type="line"/>
      <point x="436" y="786" type="line"/>
    </contour>
    <component base="vadeva"/>
  </outline>
</glyph>
<glyph name="bhadeva" format="1">
  <advance width="1447"/>
  <unicode hex="092D"/>
  <outline>
    <contour>
      <point x="326" y="1013" type="line"/>
      <point x="326" y="1100"/>
      <point x="296" y="1141"/>
      <point x="250" y="1141" type="curve" smooth="yes"/>
      <point x="198" y="1141"/>
      <point x="180" y="1112"/>
      <point x="180" y="1067" type="curve" smooth="yes"/>
      <point x="180" y="1002"/>
      <point x="225" y="948"/>
      <point x="383" y="932" type="curve"/>
      <point x="369" y="745" type="line"/>
      <point x="78" y="746"/>
      <point x="-120" y="885"/>
      <point x="-120" y="1123" type="curve" smooth="yes"/>
      <point x="-120" y="1255"/>
      <point x="-28" y="1379"/>
      <point x="211" y="1379" type="curve" smooth="yes"/>
      <point x="501" y="1379"/>
      <point x="673" y="1206"/>
      <point x="673" y="949" type="curve" smooth="yes"/>
      <point x="673" y="649" type="line"/>
      <point x="641" y="692" type="line"/>
      <point x="966" y="692" type="line"/>
      <point x="966" y="422" type="line"/>
      <point x="624" y="422" type="line"/>
      <point x="673" y="472" type="line"/>
      <point x="673" y="328" type="line"/>
      <point x="673" y="239"/>
      <point x="640" y="186"/>
      <point x="552" y="186" type="curve" smooth="yes"/>
      <point x="372" y="186"/>
      <point x="159" y="412"/>
      <point x="159" y="557" type="curve" smooth="yes"/>
      <point x="159" y="649"/>
      <point x="208" y="691"/>
      <point x="278" y="691" type="curve" smooth="yes"/>
      <point x="362" y="691" type="line"/>
      <point x="326" y="662" type="line"/>
    </contour>
    <contour>
      <point x="938" y="1104" type="line"/>
      <point x="1287" y="1104" type="line"/>
      <point x="1287" y="0" type="line"/>
      <point x="938" y="0" type="line"/>
    </contour>
    <contour>
      <point x="1500" y="1065" type="line"/>
      <point x="776" y="1065" type="line"/>
      <point x="776" y="1293" type="line"/>
      <point x="1500" y="1293" type="line"/>
    </contour>
  </outline>
</glyph>
<glyph name="madeva" format="1">
  <advance width="1339"/>
  <unicode hex="092E"/>
  <outline>
    <contour>
      <point x="-54" y="1065" type="line"/>
      <point x="-54" y="1293" type="line"/>
      <point x="1391" y="1293" type="line"/>
      <point x="1391" y="1065" type="line"/>
    </contour>
    <contour>
      <point x="186" y="1104" type="line"/>
      <point x="534" y="1104" type="line"/>
      <point x="534" y="649" type="line"/>
      <point x="502" y="692" type="line"/>
      <point x="879" y="692" type="line"/>
      <point x="879" y="422" type="line"/>
      <point x="484" y="422" type="line"/>
      <point x="534" y="472" type="line"/>
      <point x="534" y="328" type="line"/>
      <point x="534" y="239"/>
      <point x="500" y="186"/>
      <point x="412" y="186" type="curve" smooth="yes"/>
      <point x="233" y="186"/>
      <point x="20" y="412"/>
      <point x="20" y="557" type="curve" smooth="yes"/>
      <point x="20" y="649"/>
      <point x="68" y="691"/>
      <point x="138" y="691" type="curve" smooth="yes"/>
      <point x="222" y="691" type="line"/>
      <point x="186" y="662" type="line"/>
    </contour>
    <contour>
      <point x="830" y="1104" type="line"/>
      <point x="1179" y="1104" type="line"/>
      <point x="1179" y="0" type="line"/>
      <point x="830" y="0" type="line"/>
    </contour>
  </outline>
</glyph>
<glyph name="yadeva" format="1">
  <advance width="1310"/>
  <unicode hex="092F"/>
  <outline>
    <contour>
      <point x="-93" y="1065" type="line"/>
      <point x="-93" y="1293" type="line"/>
      <point x="1362" y="1293" type="line"/>
      <point x="1362" y="1065" type="line"/>
    </contour>
    <contour>
      <point x="229" y="1104" type="line"/>
      <point x="578" y="1104" type="line"/>
      <point x="578" y="931" type="line"/>
      <point x="578" y="712"/>
      <point x="503" y="578"/>
      <point x="269" y="508" type="curve"/>
      <point x="269" y="600" type="line"/>
      <point x="334" y="523"/>
      <point x="416" y="467"/>
      <point x="521" y="467" type="curve" smooth="yes"/>
      <point x="666" y="467"/>
      <point x="792" y="553"/>
      <point x="847" y="684" type="curve"/>
      <point x="847" y="224" type="line"/>
      <point x="791" y="200"/>
      <point x="740" y="190"/>
      <point x="627" y="190" type="curve" smooth="yes"/>
      <point x="319" y="190"/>
      <point x="57" y="382"/>
      <point x="-52" y="643" type="curve"/>
      <point x="-52" y="649" type="line"/>
      <point x="164" y="721"/>
      <point x="229" y="822"/>
      <point x="229" y="954" type="curve" smooth="yes"/>
    </contour>
    <contour>
      <point x="801" y="1104" type="line"/>
      <point x="1150" y="1104" type="line"/>
      <point x="1150" y="0" type="line"/>
      <point x="801" y="0" type="line"/>
    </contour>
  </outline>
</glyph>
<glyph name="radeva" format="1">
  <advance width="926"/>
  <unicode hex="0930"/>
  <outline>
    <contour>
      <point x="768" y="95" type="line"/>
      <point x="531" y="-61" type="line"/>
      <point x="95" y="499" type="line"/>
      <point x="-1" y="622"/>
      <point x="-33" y="671"/>
      <point x="-33" y="742" type="curve" smooth="yes"/>
      <point x="-33" y="812"/>
      <point x="28" y="878"/>
      <point x="115" y="878" type="curve" smooth="yes"/>
      <point x="200" y="878"/>
      <point x="254" y="822"/>
      <point x="334" y="714" type="curve" smooth="yes"/>
      <point x="379" y="652" type="line"/>
      <point x="359" y="634" type="line"/>
    </contour>
    <contour>
      <point x="271" y="712" type="line"/>
      <point x="417" y="756"/>
      <point x="463" y="823"/>
      <point x="463" y="946" type="curve" smooth="yes"/>
      <point x="463" y="1123" type="line"/>
      <point x="811" y="1123" type="line"/>
      <point x="811" y="892" type="line"/>
      <point x="811" y="701"/>
      <point x="687" y="515"/>
      <point x="474" y="431" type="curve"/>
    </contour>
    <contour>
      <point x="-79" y="1065" type="line"/>
      <point x="-79" y="1293" type="line"/>
      <point x="1018" y="1293" type="line"/>
      <point x="1018" y="1065" type="line"/>
    </contour>
    <contour>
      <point x="-15" y="8" type="move" name="x27"/>
    </contour>
    <contour>
      <point x="499" y="8" type="move" name="mark0"/>
    </contour>
  </outline>
</glyph>
<glyph name="ladeva" format="1">
  <advance width="1514"/>
  <unicode hex="0932"/>
  <outline>
    <contour>
      <point x="1122" y="1001" type="line"/>
      <point x="1122" y="603" type="line"/>
      <point x="681" y="221" type="line"/>
      <point x="465" y="429" type="line"/>
    </contour>
    <contour>
      <point x="931" y="645" type="curve"/>
      <point x="728" y="476" type="line"/>
      <point x="637" y="593"/>
      <point x="582" y="621"/>
      <point x="490" y="621" type="curve" smooth="yes"/>
      <point x="390" y="621"/>
      <point x="319" y="539"/>
      <point x="319" y="453" type="curve" smooth="yes"/>
      <point x="319" y="367"/>
      <point x="366" y="265"/>
      <point x="476" y="124" type="curve"/>
      <point x="213" y="21" type="line"/>
      <point x="78" y="190"/>
      <point x="-11" y="379"/>
      <point x="-11" y="562" type="curve" smooth="yes"/>
      <point x="-11" y="769"/>
      <point x="139" y="928"/>
      <point x="389" y="928" type="curve" smooth="yes"/>
      <point x="605" y="928"/>
      <point x="764" y="818"/>
    </contour>
    <contour>
      <point x="-66" y="1065" type="line"/>
      <point x="-66" y="1293" type="line"/>
      <point x="1566" y="1293" type="line"/>
      <point x="1566" y="1065" type="line"/>
    </contour>
    <contour>
      <point x="1005" y="1104" type="line"/>
      <point x="1354" y="1104" type="line"/>
      <point x="1354" y="0" type="line"/>
      <point x="1005" y="0" type="line"/>
    </contour>
  </outline>
</glyph>
<glyph name="shadeva" format="1">
  <advance width="1597"/>
  <unicode hex="0936"/>
  <outline>
    <contour>
      <point x="581" y="393" type="line"/>
      <point x="901" y="119" type="line"/>
      <point x="702" y="-63" type="line"/>
      <point x="325" y="269" type="line"/>
    </contour>
    <contour>
      <point x="242" y="192" type="curve" smooth="yes"/>
      <point x="103" y="192"/>
      <point x="46" y="280"/>
      <point x="46" y="385" type="curve" smooth="yes"/>
      <point x="46" y="496"/>
      <point x="132" y="618"/>
      <point x="248" y="618" type="curve" smooth="yes"/>
      <point x="332" y="618"/>
      <point x="396" y="575"/>
      <point x="479" y="497" type="curve"/>
      <point x="368" y="515" type="line"/>
      <point x="527" y="569"/>
      <point x="660" y="729"/>
      <point x="660" y="891" type="curve" smooth="yes"/>
      <point x="660" y="997"/>
      <point x="578" y="1079"/>
      <point x="497" y="1079" type="curve" smooth="yes"/>
      <point x="445" y="1079"/>
      <point x="419" y="1049"/>
      <point x="421" y="993" type="curve" smooth="yes"/>
      <point x="423" y="931"/>
      <point x="467" y="855"/>
      <point x="739" y="823" type="curve"/>
      <point x="659" y="620" type="line"/>
      <point x="261" y="678"/>
      <point x="106" y="861"/>
      <point x="106" y="1039" type="curve" smooth="yes"/>
      <point x="106" y="1182"/>
      <point x="207" y="1326"/>
      <point x="454" y="1326" type="curve" smooth="yes"/>
      <point x="754" y="1326"/>
      <point x="949" y="1124"/>
      <point x="949" y="844" type="curve" smooth="yes"/>
      <point x="949" y="509"/>
      <point x="512" y="192"/>
    </contour>
    <contour>
      <point x="1088" y="1104" type="line"/>
      <point x="1437" y="1104" type="line"/>
      <point x="1437" y="0" type="line"/>
      <point x="1088" y="0" type="line"/>
    </contour>
    <contour>
      <point x="1650" y="1065" type="line"/>
      <point x="969" y="1065" type="line"/>
      <point x="969" y="1293" type="line"/>
      <point x="1650" y="1293" type="line"/>
    </contour>
  </outline>
</glyph>
<glyph name="iivowelsigndeva" format="1">
  <advance width="619"/>
  <unicode hex="0940"/>
  <outline>
    <contour>
      <point x="102" y="1239" type="line"/>
      <point x="5" y="1426"/>
      <point x="-103" y="1528"/>
      <point x="-222" y="1528" type="curve" smooth="yes"/>
      <point x="-291" y="1528"/>
      <point x="-333" y="1482"/>
      <point x="-333" y="1431" type="curve" smooth="yes"/>
      <point x="-333" y="1373"/>
      <point x="-309" y="1313"/>
      <point x="-254" y="1251" type="curve"/>
      <point x="-565" y="1251" type="line"/>
      <point x="-618" y="1314"/>
      <point x="-663" y="1409"/>
      <point x="-663" y="1506" type="curve" smooth="yes"/>
      <point x="-663" y="1650"/>
      <point x="-563" y="1812"/>
      <point x="-322" y="1812" type="curve" smooth="yes"/>
      <point x="-12" y="1812"/>
      <point x="242" y="1610"/>
      <point x="412" y="1239" type="curve"/>
    </contour>
    <component base="aavowelsigndeva"/>
  </outline>
</glyph>
<glyph name="uuvowelsigndeva" format="1">
  <advance width="0"/>
  <unicode hex="0942"/>
  <outline>
    <contour>
      <point x="-53" y="-617" type="line"/>
      <point x="-171" y="-651"/>
      <point x="-226" y="-659"/>
      <point x="-311" y="-659" type="curve" smooth="yes"/>
      <point x="-539" y="-659"/>
      <point x="-766" y="-516"/>
      <point x="-766" y="-304" type="curve" smooth="yes"/>
      <point x="-766" y="-105"/>
      <point x="-614" y="32"/>
      <point x="-374" y="32" type="curve" smooth="yes"/>
      <point x="-85" y="32"/>
      <point x="61" y="-89"/>
      <point x="335" y="-396" type="curve"/>
      <point x="168" y="-583" type="line"/>
      <point x="-73" y="-303"/>
      <point x="-192" y="-246"/>
      <point x="-322" y="-246" type="curve" smooth="yes"/>
      <point x="-400" y="-246"/>
      <point x="-449" y="-291"/>
      <point x="-449" y="-351" type="curve" smooth="yes"/>
      <point x="-449" y="-402"/>
      <point x="-411" y="-436"/>
      <point x="-329" y="-436" type="curve" smooth="yes"/>
      <point x="-272" y="-436"/>
      <point x="-214" y="-419"/>
      <point x="-127" y="-386" type="curve"/>
    </contour>
    <contour>
      <point x="49" y="8" type="move" name="x24"/>
    </contour>
    <contour>
      <point x="-424" y="8" type="move" name="_mark0"/>
    </contour>
  </outline>
</glyph>
<glyph name="khhadeva" format="1">
  <advance width="1786"/>
  <unicode hex="0959"/>
  <outline>
    <contour>
      <point x="0" y="0" type="line"/>
      <point x="1786" y="0" type="line"/>
      <point x="1786" y="20" type="line"/>
      <point x="0" y="20" type="line"/>
    </contour>
  </outline>
</glyph>
<glyph name="ghhadeva" format="1">
  <advance width="1431"/>
  <unicode hex="095A"/>
  <outline>
    <contour>
      <point x="0" y="0" type="line"/>
      <point x="1431" y="0" type="line"/>
      <point x="1431" y="20" type="line"/>
      <point x="0" y="20" type="line"/>
    </contour>
  </outline>
</glyph>
<glyph name="dddhadeva" format="1">
  <advance width="1185"/>
  <unicode hex="095C"/>
  <outline>
    <component base="nuktadeva" xOffset="1478" yOffset="8"/>
    <component base="ddadeva"/>
    <contour>
      <point x="1068" y="1274" type="move" name="mark0"/>
    </contour>
  </outline>
</glyph>
<glyph name="yyadeva" format="1">
  <advance width="1318"/>
  <unicode hex="095F"/>
  <outline>
    <contour>
      <point x="0" y="0" type="line"/>
      <point x="1318" y="0" type="line"/>
      <point x="1318" y="20" type="line"/>
      <point x="0" y="20" type="line"/>
    </contour>
  </outline>
</glyph>
<glyph name="fourdeva" format="1">
  <advance width="1344"/>
  <unicode hex="096A"/>
  <outline>
    <contour>
      <point x="0" y="0" type="line"/>
      <point x="1344" y="0" type="line"/>
      <point x="1344" y="20" type="line"/>
      <point x="0" y="20" type="line"/>
    </contour>
  </outline>
</glyph>
<glyph name="sevendeva" format="1">
  <advance width="1343"/>
  <unicode hex="096D"/>
  <outline>
    <contour>
      <point x="1172" y="515" type="curve"/>
      <point x="1173" y="496"/>
      <point x="1070" y="246"/>
      <point x="1096" y="246" type="curve"/>
      <point x="740" y="376"/>
      <point x="578" y="540"/>
      <point x="578" y="781" type="curve" smooth="yes"/>
      <point x="578" y="925"/>
      <point x="675" y="1072"/>
      <point x="838" y="1072" type="curve" smooth="yes"/>
      <point x="1066" y="1072"/>
      <point x="1306" y="840"/>
      <point x="1306" y="546" type="curve" smooth="yes"/>
      <point x="1306" y="247"/>
      <point x="1127" y="42"/>
      <point x="871" y="41" type="curve" smooth="yes"/>
      <point x="485" y="41"/>
      <point x="131" y="417"/>
      <point x="131" y="1149" type="curve"/>
      <point x="121" y="1150"/>
      <point x="394" y="1212"/>
      <point x="394" y="1223" type="curve"/>
      <point x="396" y="500"/>
      <point x="657" y="314"/>
      <point x="814" y="314" type="curve" smooth="yes"/>
      <point x="941" y="314"/>
      <point x="1050" y="439"/>
      <point x="1050" y="588" type="curve" smooth="yes"/>
      <point x="1050" y="697"/>
      <point x="992" y="763"/>
      <point x="911" y="763" type="curve" smooth="yes"/>
      <point x="833" y="763"/>
      <point x="809" y="771"/>
      <point x="806" y="749" type="curve" smooth="yes"/>
      <point x="806" y="671"/>
      <point x="909" y="594"/>
    </contour>
  </outline>
</glyph>
<glyph name="gabardeva" format="1">
  <advance width="1425"/>
  <unicode hex="097B"/>
  <outline>
    <contour>
      <point x="189" y="-37" type="line"/>
      <point x="189" y="156" type="line"/>
      <point x="870" y="156" type="line"/>
      <point x="870" y="1045" type="line"/>
      <point x="617" y="1045" type="line"/>
      <point x="617" y="506" type="line"/>
      <point x="617" y="405"/>
      <point x="562" y="352"/>
      <point x="436" y="352" type="curve" smooth="yes"/>
      <point x="382" y="352"/>
      <point x="318" y="376"/>
      <point x="269" y="406" type="curve"/>
      <point x="211" y="444"/>
      <point x="162" y="484"/>
      <point x="137" y="518" type="curve" smooth="yes"/>
      <point x="99" y="572"/>
      <point x="78" y="617"/>
      <point x="78" y="650" type="curve" smooth="yes"/>
      <point x="78" y="741"/>
      <point x="143" y="781"/>
      <point x="254" y="787" type="curve"/>
      <point x="254" y="1045" type="line"/>
      <point x="9" y="1045" type="line"/>
      <point x="9" y="1274" type="line"/>
      <point x="1441" y="1274" type="line"/>
      <point x="1441" y="1045" type="line"/>
      <point x="1233" y="1045" type="line"/>
      <point x="1233" y="-37" type="line"/>
    </contour>
  </outline>
</glyph>
<glyph name="minus.deva" format="1">
  <advance width="1043"/>
  <unicode hex="2212"/>
  <outline>
    <contour>
      <point x="65" y="529" type="line"/>
      <point x="65" y="770" type="line"/>
      <point x="976" y="770" type="line"/>
      <point x="976" y="529" type="line"/>
    </contour>
  </outline>
</glyph>
<glyph name="uni25CC" format="1">
  <advance width="1211"/>
  <unicode hex="25CC"/>
  <outline>
    <contour>
      <point x="705" y="991" type="curve" smooth="yes"/>
      <point x="705" y="949"/>
      <point x="671" y="929"/>
      <point x="601" y="929" type="curve" smooth="yes"/>
      <point x="533" y="929"/>
      <point x="500" y="950"/>
      <point x="500" y="991" type="curve" smooth="yes"/>
      <point x="500" y="1033"/>
      <point x="531" y="1055"/>
      <point x="601" y="1055" type="curve" smooth="yes"/>
      <point x="671" y="1055"/>
      <point x="705" y="1033"/>
    </contour>
    <contour>
      <point x="425" y="891" type="curve" smooth="yes"/>
      <point x="425" y="849"/>
      <point x="390" y="827"/>
      <point x="322" y="827" type="curve" smooth="yes"/>
      <point x="254" y="827"/>
      <point x="219" y="849"/>
      <point x="219" y="891" type="curve" smooth="yes"/>
      <point x="219" y="932"/>
      <point x="254" y="955"/>
      <point x="322" y="955" type="curve" smooth="yes"/>
      <point x="390" y="955"/>
      <point x="425" y="932"/>
    </contour>
    <contour>
      <point x="988" y="891" type="curve" smooth="yes"/>
      <point x="988" y="849"/>
      <point x="953" y="827"/>
      <point x="885" y="827" type="curve" smooth="yes"/>
      <point x="817" y="827"/>
      <point x="782" y="849"/>
      <point x="782" y="891" type="curve" smooth="yes"/>
      <point x="782" y="932"/>
      <point x="817" y="955"/>
      <point x="885" y="955" type="curve" smooth="yes"/>
      <point x="953" y="955"/>
      <point x="988" y="932"/>
    </contour>
    <contour>
      <point x="1085" y="638" type="curve" smooth="yes"/>
      <point x="1085" y="597"/>
      <point x="1052" y="574"/>
      <point x="981" y="574" type="curve" smooth="yes"/>
      <point x="914" y="574"/>
      <point x="880" y="597"/>
      <point x="880" y="638" type="curve" smooth="yes"/>
      <point x="880" y="679"/>
      <point x="914" y="702"/>
      <point x="981" y="702" type="curve" smooth="yes"/>
      <point x="1052" y="702"/>
      <point x="1085" y="679"/>
    </contour>
    <contour>
      <point x="327" y="638" type="curve" smooth="yes"/>
      <point x="327" y="597"/>
      <point x="290" y="574"/>
      <point x="225" y="574" type="curve" smooth="yes"/>
      <point x="156" y="574"/>
      <point x="122" y="597"/>
      <point x="122" y="638" type="curve" smooth="yes"/>
      <point x="122" y="679"/>
      <point x="156" y="702"/>
      <point x="225" y="702" type="curve" smooth="yes"/>
      <point x="290" y="702"/>
      <point x="327" y="679"/>
    </contour>
    <contour>
      <point x="425" y="385" type="curve" smooth="yes"/>
      <point x="425" y="344"/>
      <point x="390" y="321"/>
      <point x="322" y="321" type="curve" smooth="yes"/>
      <point x="254" y="321"/>
      <point x="219" y="344"/>
      <point x="219" y="385" type="curve" smooth="yes"/>
      <point x="219" y="427"/>
      <point x="254" y="449"/>
      <point x="322" y="449" type="curve" smooth="yes"/>
      <point x="390" y="449"/>
      <point x="425" y="427"/>
    </contour>
    <contour>
      <point x="988" y="385" type="curve" smooth="yes"/>
      <point x="988" y="344"/>
      <point x="953" y="321"/>
      <point x="885" y="321" type="curve" smooth="yes"/>
      <point x="817" y="321"/>
      <point x="782" y="344"/>
      <point x="782" y="385" type="curve" smooth="yes"/>
      <point x="782" y="427"/>
      <point x="817" y="449"/>
      <point x="885" y="449" type="curve" smooth="yes"/>
      <point x="953" y="449"/>
      <point x="988" y="427"/>
    </contour>
    <contour>
      <point x="705" y="285" type="curve" smooth="yes"/>
      <point x="705" y="241"/>
      <point x="671" y="220"/>
      <point x="601" y="220" type="curve" smooth="yes"/>
      <point x="533" y="220"/>
      <point x="500" y="242"/>
      <point x="500" y="285" type="curve" smooth="yes"/>
      <point x="500" y="326"/>
      <point x="533" y="347"/>
      <point x="601" y="347" type="curve" smooth="yes"/>
      <point x="671" y="347"/>
      <point x="705" y="327"/>
    </contour>
  </outline>
</glyph>
<glyph name="bhanuktadeva" format="1">
  <advance width="1405"/>
  <outline>
    <contour>
      <point x="0" y="0" type="line"/>
      <point x="1405" y="0" type="line"/>
      <point x="1405" y="20" type="line"/>
      <point x="0" y="20" type="line"/>
    </contour>
  </outline>
</glyph>
<glyph name="bhaprehalfdeva" format="1">
  <advance width="940"/>
  <outline>
    <contour>
      <point x="344" y="982" type="line"/>
      <point x="344" y="1058"/>
      <point x="319" y="1085"/>
      <point x="274" y="1085" type="curve" smooth="yes"/>
      <point x="226" y="1085"/>
      <point x="208" y="1061"/>
      <point x="206" y="1022" type="curve" smooth="yes"/>
      <point x="206" y="963"/>
      <point x="246" y="915"/>
      <point x="388" y="900" type="curve"/>
      <point x="386" y="902"/>
      <point x="372" y="722"/>
      <point x="370" y="725" type="curve"/>
      <point x="94" y="725"/>
      <point x="-94" y="856"/>
      <point x="-94" y="1084" type="curve" smooth="yes"/>
      <point x="-95" y="1210"/>
      <point x="-9" y="1330"/>
      <point x="222" y="1333" type="curve" smooth="yes"/>
      <point x="501" y="1338"/>
      <point x="677" y="1170"/>
      <point x="680" y="925" type="curve" smooth="yes"/>
      <point x="680" y="667" type="line"/>
      <point x="680" y="671"/>
      <point x="650" y="716"/>
      <point x="648" y="720" type="curve"/>
      <point x="1091" y="720" type="line"/>
      <point x="1089" y="726"/>
      <point x="1085" y="464"/>
      <point x="1079" y="464" type="curve"/>
      <point x="1073" y="464"/>
      <point x="609" y="462"/>
      <point x="609" y="456" type="curve"/>
      <point x="609" y="449"/>
      <point x="664" y="495"/>
      <point x="670" y="494" type="curve"/>
      <point x="670" y="354" type="line"/>
      <point x="661" y="267"/>
      <point x="619" y="219"/>
      <point x="533" y="229" type="curve" smooth="yes"/>
      <point x="356" y="238"/>
      <point x="158" y="459"/>
      <point x="166" y="601" type="curve" smooth="yes"/>
      <point x="190" y="692"/>
      <point x="233" y="706"/>
      <point x="300" y="691" type="curve" smooth="yes"/>
      <point x="405" y="691" type="line"/>
      <point x="371" y="658" type="line"/>
    </contour>
    <contour>
      <point x="1197" y="1064" type="line"/>
      <point x="786" y="1070" type="line"/>
      <point x="788" y="1293" type="line"/>
      <point x="1199" y="1287" type="line"/>
    </contour>
  </outline>
</glyph>
<glyph name="bharadeva" format="1">
  <advance width="1461"/>
  <outline>
    <contour>
      <point x="0" y="0" type="line"/>
      <point x="1461" y="0" type="line"/>
      <point x="1461" y="20" type="line"/>
      <point x="0" y="20" type="line"/>
    </contour>
  </outline>
</glyph>
<glyph name="chayadeva" format="1">
  <advance width="3078"/>
  <outline>
    <contour>
      <point x="0" y="0" type="line"/>
      <point x="3078" y="0" type="line"/>
      <point x="3078" y="20" type="line"/>
      <point x="0" y="20" type="line"/>
    </contour>
  </outline>
</glyph>
<glyph name="dadhayadeva" format="1">
  <advance width="2699"/>
  <outline>
    <contour>
      <point x="0" y="0" type="line"/>
      <point x="2699" y="0" type="line"/>
      <point x="2699" y="20" type="line"/>
      <point x="0" y="20" type="line"/>
    </contour>
  </outline>
</glyph>
<glyph name="davadeva" format="1">
  <advance width="1600"/>
  <outline>
    <contour>
      <point x="0" y="0" type="line"/>
      <point x="1600" y="0" type="line"/>
      <point x="1600" y="20" type="line"/>
      <point x="0" y="20" type="line"/>
    </contour>
  </outline>
</glyph>
<glyph name="garaprehalfdeva" format="1">
  <advance width="916"/>
  <outline>
    <contour>
      <point x="618" y="1045" type="line"/>
      <point x="618" y="493" type="line"/>
      <point x="618" y="390"/>
      <point x="562" y="337"/>
      <point x="436" y="337" type="curve" smooth="yes"/>
      <point x="381" y="337"/>
      <point x="318" y="361"/>
      <point x="269" y="391" type="curve"/>
      <point x="213" y="428"/>
      <point x="163" y="469"/>
      <point x="137" y="504" type="curve"/>
      <point x="102" y="554"/>
      <point x="79" y="603"/>
      <point x="79" y="636" type="curve" smooth="yes"/>
      <point x="79" y="726"/>
      <point x="142" y="766"/>
      <point x="255" y="773" type="curve"/>
      <point x="255" y="1045" type="line"/>
      <point x="9" y="1045" type="line"/>
      <point x="9" y="1274" type="line"/>
      <point x="936" y="1274" type="line"/>
      <point x="936" y="1045" type="line"/>
    </contour>
    <contour>
      <point x="1061" y="267" type="line"/>
      <point x="872" y="159"/>
      <point x="652" y="34"/>
      <point x="463" y="-73" type="curve"/>
      <point x="462" y="-71"/>
      <point x="303" y="133"/>
      <point x="302" y="134" type="curve"/>
      <point x="312" y="141"/>
      <point x="919" y="446"/>
      <point x="930" y="452" type="curve"/>
    </contour>
  </outline>
</glyph>
<glyph name="haladeva" format="1">
  <advance width="1966"/>
  <outline>
    <contour>
      <point x="0" y="0" type="line"/>
      <point x="1966" y="0" type="line"/>
      <point x="1966" y="20" type="line"/>
      <point x="0" y="20" type="line"/>
    </contour>
  </outline>
</glyph>
<glyph name="hamadeva" format="1">
  <advance width="2070"/>
  <outline>
    <contour>
      <point x="0" y="0" type="line"/>
      <point x="2070" y="0" type="line"/>
      <point x="2070" y="20" type="line"/>
      <point x="0" y="20" type="line"/>
    </contour>
  </outline>
</glyph>
<glyph name="havadeva" format="1">
  <advance width="1857"/>
  <outline>
    <contour>
      <point x="0" y="0" type="line"/>
      <point x="1857" y="0" type="line"/>
      <point x="1857" y="20" type="line"/>
      <point x="0" y="20" type="line"/>
    </contour>
  </outline>
</glyph>
<glyph name="hayadeva" format="1">
  <advance width="2044"/>
  <outline>
    <contour>
      <point x="0" y="0" type="line"/>
      <point x="2044" y="0" type="line"/>
      <point x="2044" y="20" type="line"/>
      <point x="0" y="20" type="line"/>
    </contour>
  </outline>
</glyph>
<glyph name="iivowelsignrephanusvaradeva" format="1">
  <advance width="631"/>
  <outline>
    <contour>
      <point x="587" y="1561" type="curve" smooth="yes"/>
      <point x="683" y="1561"/>
      <point x="724" y="1501"/>
      <point x="724" y="1449" type="curve" smooth="yes"/>
      <point x="724" y="1400"/>
      <point x="683" y="1338"/>
      <point x="587" y="1338" type="curve" smooth="yes"/>
      <point x="497" y="1338"/>
      <point x="450" y="1397"/>
      <point x="450" y="1449" type="curve" smooth="yes"/>
      <point x="450" y="1502"/>
      <point x="496" y="1561"/>
    </contour>
    <contour>
      <point x="222" y="1244" type="line"/>
      <point x="133" y="1351"/>
      <point x="82" y="1434"/>
      <point x="82" y="1553" type="curve" smooth="yes"/>
      <point x="82" y="1695"/>
      <point x="222" y="1836"/>
      <point x="434" y="1836" type="curve" smooth="yes"/>
      <point x="572" y="1836"/>
      <point x="619" y="1827"/>
      <point x="680" y="1814" type="curve"/>
      <point x="664" y="1626" type="line"/>
      <point x="627" y="1634"/>
      <point x="608" y="1636"/>
      <point x="553" y="1636" type="curve" smooth="yes"/>
      <point x="451" y="1636"/>
      <point x="380" y="1553"/>
      <point x="380" y="1458" type="curve" smooth="yes"/>
      <point x="380" y="1378"/>
      <point x="420" y="1314"/>
      <point x="470" y="1244" type="curve"/>
    </contour>
    <component base="iivowelsigndeva"/>
  </outline>
</glyph>
<glyph name="ivowelsign03deva" format="1">
  <advance width="682"/>
  <outline>
    <contour>
      <point x="131" y="1254" type="line"/>
      <point x="131" y="1340" type="line"/>
      <point x="131" y="1601"/>
      <point x="313" y="1805"/>
      <point x="681" y="1805" type="curve" smooth="yes"/>
      <point x="1067" y="1805"/>
      <point x="1412" y="1615"/>
      <point x="1732" y="1254" type="curve"/>
      <point x="1374" y="1254" type="line"/>
      <point x="1138" y="1443"/>
      <point x="966" y="1514"/>
      <point x="753" y="1514" type="curve" smooth="yes"/>
      <point x="569" y="1514"/>
      <point x="479" y="1421"/>
      <point x="479" y="1312" type="curve" smooth="yes"/>
      <point x="479" y="1254" type="line"/>
    </contour>
    <component base="aavowelsigndeva"/>
  </outline>
</glyph>
<glyph name="ivowelsignrephanusvara03deva" format="1">
  <advance width="735"/>
  <outline>
    <contour>
      <point x="0" y="0" type="line"/>
      <point x="735" y="0" type="line"/>
      <point x="735" y="20" type="line"/>
      <point x="0" y="20" type="line"/>
    </contour>
  </outline>
</glyph>
<glyph name="janyaprehalfdeva" format="1">
  <advance width="1144"/>
  <outline>
    <contour>
      <point x="0" y="0" type="line"/>
      <point x="1144" y="0" type="line"/>
      <point x="1144" y="20" type="line"/>
      <point x="0" y="20" type="line"/>
    </contour>
  </outline>
</glyph>
<glyph name="janyaradeva" format="1">
  <advance width="1796"/>
  <outline>
    <contour>
      <point x="0" y="0" type="line"/>
      <point x="1796" y="0" type="line"/>
      <point x="1796" y="20" type="line"/>
      <point x="0" y="20" type="line"/>
    </contour>
  </outline>
</glyph>
<glyph name="laraprehalfdeva" format="1">
  <advance width="1361"/>
  <outline>
    <contour>
      <point x="0" y="0" type="line"/>
      <point x="1361" y="0" type="line"/>
      <point x="1361" y="20" type="line"/>
      <point x="0" y="20" type="line"/>
    </contour>
  </outline>
</glyph>
<glyph name="nnaprehalfdeva" format="1">
  <advance width="1253"/>
  <outline>
    <contour>
      <point x="0" y="0" type="line"/>
      <point x="1253" y="0" type="line"/>
      <point x="1253" y="20" type="line"/>
      <point x="0" y="20" type="line"/>
    </contour>
  </outline>
</glyph>
<glyph name="nukta2deva" format="1">
  <advance width="98"/>
  <outline>
    <contour>
      <point x="-571" y="-105" type="curve" smooth="yes"/>
      <point x="-508" y="-105"/>
      <point x="-459" y="-121"/>
      <point x="-426" y="-149" type="curve"/>
      <point x="-387" y="-187"/>
      <point x="-367" y="-223"/>
      <point x="-367" y="-264" type="curve" smooth="yes"/>
      <point x="-367" y="-303"/>
      <point x="-387" y="-340"/>
      <point x="-426" y="-377" type="curve" smooth="yes"/>
      <point x="-458" y="-407"/>
      <point x="-507" y="-423"/>
      <point x="-571" y="-423" type="curve" smooth="yes"/>
      <point x="-634" y="-423"/>
      <point x="-681" y="-407"/>
      <point x="-715" y="-377" type="curve"/>
      <point x="-754" y="-340"/>
      <point x="-776" y="-302"/>
      <point x="-776" y="-264" type="curve" smooth="yes"/>
      <point x="-776" y="-225"/>
      <point x="-754" y="-187"/>
      <point x="-715" y="-149" type="curve"/>
      <point x="-680" y="-120"/>
      <point x="-633" y="-105"/>
    </contour>
  </outline>
</glyph>
<glyph name="nyaraprehalfdeva" format="1">
  <advance width="1522"/>
  <outline>
    <contour>
      <point x="0" y="0" type="line"/>
      <point x="1522" y="0" type="line"/>
      <point x="1522" y="20" type="line"/>
      <point x="0" y="20" type="line"/>
    </contour>
  </outline>
</glyph>
<glyph name="paraprehalfdeva" format="1">
  <advance width="845"/>
  <outline>
    <contour>
      <point x="0" y="0" type="line"/>
      <point x="845" y="0" type="line"/>
      <point x="845" y="20" type="line"/>
      <point x="0" y="20" type="line"/>
    </contour>
  </outline>
</glyph>
<glyph name="phaprehalfdeva" format="1">
  <advance width="1321"/>
  <outline>
    <contour>
      <point x="0" y="0" type="line"/>
      <point x="1321" y="0" type="line"/>
      <point x="1321" y="20" type="line"/>
      <point x="0" y="20" type="line"/>
    </contour>
  </outline>
</glyph>
<glyph name="ranuktaradeva" format="1">
  <advance width="1003"/>
  <outline>
    <contour>
      <point x="0" y="0" type="line"/>
      <point x="1003" y="0" type="line"/>
      <point x="1003" y="20" type="line"/>
      <point x="0" y="20" type="line"/>
    </contour>
  </outline>
</glyph>
<glyph name="shacadeva" format="1">
  <advance width="1774"/>
  <outline>
    <contour>
      <point x="0" y="0" type="line"/>
      <point x="1774" y="0" type="line"/>
      <point x="1774" y="20" type="line"/>
      <point x="0" y="20" type="line"/>
    </contour>
  </outline>
</glyph>
<glyph name="shaladeva" format="1">
  <advance width="2625"/>
  <outline>
    <contour>
      <point x="0" y="0" type="line"/>
      <point x="2625" y="0" type="line"/>
      <point x="2625" y="20" type="line"/>
      <point x="0" y="20" type="line"/>
    </contour>
  </outline>
</glyph>
<glyph name="shanadeva" format="1">
  <advance width="1776"/>
  <outline>
    <contour>
      <point x="0" y="0" type="line"/>
      <point x="1776" y="0" type="line"/>
      <point x="1776" y="20" type="line"/>
      <point x="0" y="20" type="line"/>
    </contour>
  </outline>
</glyph>
<glyph name="ssattadeva" format="1">
  <advance width="1463"/>
  <outline>
    <contour>
      <point x="0" y="0" type="line"/>
      <point x="1463" y="0" type="line"/>
      <point x="1463" y="20" type="line"/>
      <point x="0" y="20" type="line"/>
    </contour>
  </outline>
</glyph>
<glyph name="ttaradeva" format="1">
  <advance width="1125"/>
  <outline>
    <component base="vattudeva" xOffset="1133"/>
    <component base="ttadeva"/>
    <contour>
      <point x="664" y="1274" type="move" name="mark0"/>
    </contour>
  </outline>
</glyph>
<glyph name="ttharadeva" format="1">
  <advance width="1271"/>
  <outline>
    <component base="vattudeva" xOffset="1222"/>
    <component base="tthadeva"/>
    <contour>
      <point x="665" y="1274" type="move" name="mark0"/>
    </contour>
  </outline>
</glyph>
<glyph name="tthayadeva" format="1">
  <advance width="2775"/>
  <outline>
    <contour>
      <point x="0" y="0" type="line"/>
      <point x="2775" y="0" type="line"/>
      <point x="2775" y="20" type="line"/>
      <point x="0" y="20" type="line"/>
    </contour>
  </outline>
</glyph>
